<?xml version="1.0" encoding="iso-8859-1"?>
<!-- Generator: Adobe Illustrator 19.0.0, SVG Export Plug-In . SVG Version: 6.00 Build 0)  -->
<svg version="1.1" id="Capa_1" xmlns="http://www.w3.org/2000/svg" xmlns:xlink="http://www.w3.org/1999/xlink" x="0px" y="0px"
	 viewBox="0 0 512.001 512.001" style="enable-background:new 0 0 512.001 512.001;" xml:space="preserve">
<g>
	<g>
		<path d="M510.482,449.89l-32.02-117.888H336.425l-23.756,66.481c-93.607-29.37-169.784-105.545-199.154-199.154l66.481-23.756
			V33.539L62.403,1.594l-0.294-0.076C30.577-6.364,0,17.459,0,50.01v60.147c0,220.95,181.099,401.842,401.841,401.842h60.148
			C494.489,511.999,518.377,481.471,510.482,449.89z M461.988,482H401.84C196.807,482,29.999,315.192,29.999,110.158V50.01
			c0-12.962,12.137-22.48,24.707-19.42l95.291,25.886v97.96l-72.784,26.009l3.487,13.301
			c30.104,114.845,122.641,207.431,237.553,237.553l13.301,3.487l26.009-72.784h97.96l25.886,95.291
			C484.466,469.864,474.951,482,461.988,482z"/>
	</g>
</g>
<g>
	<g>
		<path d="M256.995,0.008v29.999c124.063,0,224.996,100.933,224.996,224.996h29.999C511.991,114.075,397.943,0.008,256.995,0.008z"
			/>
	</g>
</g>
<g>
	<g>
		<path d="M256.995,60.007v29.999c90.979,0,164.997,74.018,164.997,164.997h29.999C451.992,147.483,364.517,60.007,256.995,60.007z"
			/>
	</g>
</g>
<g>
	<g>
		<path d="M256.995,120.006v29.999c57.896,0,104.998,47.102,104.998,104.998h29.999
			C391.993,180.566,331.433,120.006,256.995,120.006z"/>
	</g>
</g>
<g>
</g>
<g>
</g>
<g>
</g>
<g>
</g>
<g>
</g>
<g>
</g>
<g>
</g>
<g>
</g>
<g>
</g>
<g>
</g>
<g>
</g>
<g>
</g>
<g>
</g>
<g>
</g>
<g>
</g>
</svg>
