<?xml version="1.0" standalone="no"?>
<!DOCTYPE svg PUBLIC "-//W3C//DTD SVG 20010904//EN"
 "http://www.w3.org/TR/2001/REC-SVG-20010904/DTD/svg10.dtd">
<svg version="1.0" xmlns="http://www.w3.org/2000/svg"
 width="512.000000pt" height="512.000000pt" viewBox="0 0 512.000000 512.000000"
 preserveAspectRatio="xMidYMid meet">
<metadata>
Created by potrace 1.11, written by Peter Selinger 2001-2013
</metadata>
<g transform="translate(0.000000,512.000000) scale(0.100000,-0.100000)"
fill="#000000" stroke="none">
<path d="M1367 5104 c-1 -1 -40 -4 -87 -8 -153 -10 -287 -43 -430 -105 -442
-191 -756 -600 -833 -1086 -14 -86 -16 -492 -3 -585 2 -19 7 -75 11 -124 4
-49 9 -103 11 -120 2 -17 6 -53 9 -81 3 -27 8 -66 11 -85 3 -19 7 -50 9 -68
19 -154 86 -511 129 -692 23 -93 49 -198 65 -255 44 -155 50 -179 46 -184 -2
-3 -33 -22 -70 -41 -37 -19 -79 -50 -93 -68 -34 -44 -42 -125 -17 -172 24 -46
30 -52 126 -108 46 -28 106 -71 132 -97 46 -45 127 -158 127 -177 0 -16 51
-77 69 -83 10 -3 41 -51 70 -108 28 -56 59 -115 69 -132 9 -16 31 -56 49 -87
32 -56 53 -71 104 -72 21 -1 38 -17 82 -76 52 -71 54 -76 41 -101 -18 -37 -10
-66 29 -108 19 -20 47 -51 63 -69 40 -46 161 -126 231 -152 338 -126 708 46
832 387 30 82 38 128 46 280 8 153 27 239 70 323 61 117 154 172 293 172 108
0 180 -27 240 -91 78 -82 118 -209 128 -406 7 -148 13 -184 42 -270 102 -294
396 -476 697 -429 151 23 263 81 372 192 78 79 203 233 203 250 0 6 4 12 8 14
12 4 90 127 154 243 51 90 116 222 178 360 63 138 162 416 249 696 48 154 133
510 167 699 4 19 8 44 10 55 2 11 9 47 14 80 5 33 12 69 14 80 4 20 13 88 22
155 2 19 7 52 10 72 6 44 -8 76 -40 88 -20 7 -22 14 -19 57 2 26 6 57 8 68 2
11 4 33 4 48 1 22 8 30 31 39 42 14 51 37 58 142 8 127 8 451 0 511 -22 160
-66 305 -134 442 l-45 91 45 45 c47 48 55 70 45 129 -9 56 -32 83 -108 127
-81 48 -153 117 -183 175 -49 97 -88 127 -164 129 -50 0 -108 -33 -125 -73
l-11 -25 -93 46 c-143 70 -291 114 -455 134 -64 8 -230 9 -286 1 -21 -3 -59
-8 -84 -11 -122 -16 -287 -74 -458 -159 -70 -35 -145 -69 -167 -76 -22 -7 -51
-16 -65 -21 -106 -34 -306 -40 -441 -15 -109 20 -180 46 -349 129 -152 74
-270 116 -365 133 -103 17 -289 35 -298 28z"/>
</g>
</svg>
